STARTFONT 2.1
FONT -t-cherry-Bold-R-Normal--10-100-75-75-C-100-ISO8859-1
SIZE 10 75 75
FONTBOUNDINGBOX 6 10 0 -2
STARTPROPERTIES 14
POINT_SIZE 100
PIXEL_SIZE 10
RESOLUTION_X 75
RESOLUTION_Y 75
AVERAGE_WIDTH 100
SPACING "C"
_GBDFED_INFO "Edited with gbdfed 1.6."
CHARSET_ENCODING "1"
CHARSET_REGISTRY "ISO8859"
FOUNDRY "t"
FAMILY_NAME "cherry"
FONT_DESCENT 2
FONT_ASCENT 8
WEIGHT_NAME "Bold"
ENDPROPERTIES
CHARS 192
STARTCHAR char0
ENCODING 0
SWIDTH 576 0
DWIDTH 6 0
BBX 6 10 0 -2
BITMAP
FC
FC
FC
FC
FC
FC
FC
FC
FC
FC
ENDCHAR
STARTCHAR char32
ENCODING 32
SWIDTH 576 0
DWIDTH 6 0
BBX 6 10 0 -2
BITMAP
00
00
00
00
00
00
00
00
00
00
ENDCHAR
STARTCHAR char33
ENCODING 33
SWIDTH 576 0
DWIDTH 6 0
BBX 6 10 0 -2
BITMAP
00
30
30
30
30
00
30
30
00
00
ENDCHAR
STARTCHAR char34
ENCODING 34
SWIDTH 576 0
DWIDTH 6 0
BBX 6 10 0 -2
BITMAP
00
6C
6C
6C
00
00
00
00
00
00
ENDCHAR
STARTCHAR char35
ENCODING 35
SWIDTH 576 0
DWIDTH 6 0
BBX 6 10 0 -2
BITMAP
00
28
7C
7C
28
7C
7C
28
00
00
ENDCHAR
STARTCHAR char36
ENCODING 36
SWIDTH 576 0
DWIDTH 6 0
BBX 6 10 0 -2
BITMAP
00
10
38
74
30
18
74
38
10
00
ENDCHAR
STARTCHAR char37
ENCODING 37
SWIDTH 576 0
DWIDTH 6 0
BBX 6 10 0 -2
BITMAP
00
64
64
68
10
2C
4C
4C
00
00
ENDCHAR
STARTCHAR char38
ENCODING 38
SWIDTH 576 0
DWIDTH 6 0
BBX 6 10 0 -2
BITMAP
00
30
68
68
34
68
6C
34
00
00
ENDCHAR
STARTCHAR char39
ENCODING 39
SWIDTH 576 0
DWIDTH 6 0
BBX 6 10 0 -2
BITMAP
00
30
30
30
00
00
00
00
00
00
ENDCHAR
STARTCHAR char40
ENCODING 40
SWIDTH 576 0
DWIDTH 6 0
BBX 6 10 0 -2
BITMAP
00
18
30
30
30
30
30
30
18
00
ENDCHAR
STARTCHAR char41
ENCODING 41
SWIDTH 576 0
DWIDTH 6 0
BBX 6 10 0 -2
BITMAP
00
30
18
18
18
18
18
18
30
00
ENDCHAR
STARTCHAR char42
ENCODING 42
SWIDTH 576 0
DWIDTH 6 0
BBX 6 10 0 -2
BITMAP
00
00
10
54
7C
38
7C
54
10
00
ENDCHAR
STARTCHAR char43
ENCODING 43
SWIDTH 576 0
DWIDTH 6 0
BBX 6 10 0 -2
BITMAP
00
00
30
30
FC
FC
30
30
00
00
ENDCHAR
STARTCHAR char44
ENCODING 44
SWIDTH 576 0
DWIDTH 6 0
BBX 6 10 0 -2
BITMAP
00
00
00
00
00
00
30
30
60
00
ENDCHAR
STARTCHAR char45
ENCODING 45
SWIDTH 576 0
DWIDTH 6 0
BBX 6 10 0 -2
BITMAP
00
00
00
00
78
78
00
00
00
00
ENDCHAR
STARTCHAR char46
ENCODING 46
SWIDTH 576 0
DWIDTH 6 0
BBX 6 10 0 -2
BITMAP
00
00
00
00
00
00
30
30
00
00
ENDCHAR
STARTCHAR char47
ENCODING 47
SWIDTH 576 0
DWIDTH 6 0
BBX 6 10 0 -2
BITMAP
00
0C
0C
18
18
30
30
60
60
00
ENDCHAR
STARTCHAR char48
ENCODING 48
SWIDTH 576 0
DWIDTH 6 0
BBX 6 10 0 -2
BITMAP
00
38
6C
6C
7C
6C
6C
38
00
00
ENDCHAR
STARTCHAR char49
ENCODING 49
SWIDTH 576 0
DWIDTH 6 0
BBX 6 10 0 -2
BITMAP
00
18
38
58
18
18
18
18
00
00
ENDCHAR
STARTCHAR char50
ENCODING 50
SWIDTH 576 0
DWIDTH 6 0
BBX 6 10 0 -2
BITMAP
00
38
6C
6C
08
10
3C
7C
00
00
ENDCHAR
STARTCHAR char51
ENCODING 51
SWIDTH 576 0
DWIDTH 6 0
BBX 6 10 0 -2
BITMAP
00
78
0C
0C
38
0C
0C
78
00
00
ENDCHAR
STARTCHAR char52
ENCODING 52
SWIDTH 576 0
DWIDTH 6 0
BBX 6 10 0 -2
BITMAP
00
18
38
38
58
7C
18
18
00
00
ENDCHAR
STARTCHAR char53
ENCODING 53
SWIDTH 576 0
DWIDTH 6 0
BBX 6 10 0 -2
BITMAP
00
7C
60
60
78
0C
0C
78
00
00
ENDCHAR
STARTCHAR char54
ENCODING 54
SWIDTH 576 0
DWIDTH 6 0
BBX 6 10 0 -2
BITMAP
00
38
60
60
78
6C
6C
38
00
00
ENDCHAR
STARTCHAR char55
ENCODING 55
SWIDTH 576 0
DWIDTH 6 0
BBX 6 10 0 -2
BITMAP
00
7C
7C
08
18
30
30
30
00
00
ENDCHAR
STARTCHAR char56
ENCODING 56
SWIDTH 576 0
DWIDTH 6 0
BBX 6 10 0 -2
BITMAP
00
38
6C
6C
38
6C
6C
38
00
00
ENDCHAR
STARTCHAR char57
ENCODING 57
SWIDTH 576 0
DWIDTH 6 0
BBX 6 10 0 -2
BITMAP
00
38
6C
6C
3C
0C
0C
38
00
00
ENDCHAR
STARTCHAR char58
ENCODING 58
SWIDTH 576 0
DWIDTH 6 0
BBX 6 10 0 -2
BITMAP
00
00
00
30
30
00
30
30
00
00
ENDCHAR
STARTCHAR char59
ENCODING 59
SWIDTH 576 0
DWIDTH 6 0
BBX 6 10 0 -2
BITMAP
00
00
00
30
30
00
30
30
60
00
ENDCHAR
STARTCHAR char60
ENCODING 60
SWIDTH 576 0
DWIDTH 6 0
BBX 6 10 0 -2
BITMAP
00
00
00
0C
38
60
38
0C
00
00
ENDCHAR
STARTCHAR char61
ENCODING 61
SWIDTH 576 0
DWIDTH 6 0
BBX 6 10 0 -2
BITMAP
00
00
00
78
78
00
78
78
00
00
ENDCHAR
STARTCHAR char62
ENCODING 62
SWIDTH 576 0
DWIDTH 6 0
BBX 6 10 0 -2
BITMAP
00
00
00
60
38
0C
38
60
00
00
ENDCHAR
STARTCHAR char63
ENCODING 63
SWIDTH 576 0
DWIDTH 6 0
BBX 6 10 0 -2
BITMAP
00
18
2C
2C
08
10
00
10
00
00
ENDCHAR
STARTCHAR char64
ENCODING 64
SWIDTH 576 0
DWIDTH 6 0
BBX 6 10 0 -2
BITMAP
00
78
CC
BC
AC
9C
C0
78
00
00
ENDCHAR
STARTCHAR char65
ENCODING 65
SWIDTH 576 0
DWIDTH 6 0
BBX 6 10 0 -2
BITMAP
00
38
38
6C
6C
7C
6C
6C
00
00
ENDCHAR
STARTCHAR char66
ENCODING 66
SWIDTH 576 0
DWIDTH 6 0
BBX 6 10 0 -2
BITMAP
00
78
6C
6C
78
6C
6C
78
00
00
ENDCHAR
STARTCHAR char67
ENCODING 67
SWIDTH 576 0
DWIDTH 6 0
BBX 6 10 0 -2
BITMAP
00
38
64
60
60
60
64
38
00
00
ENDCHAR
STARTCHAR char68
ENCODING 68
SWIDTH 576 0
DWIDTH 6 0
BBX 6 10 0 -2
BITMAP
00
78
6C
6C
6C
6C
6C
78
00
00
ENDCHAR
STARTCHAR char69
ENCODING 69
SWIDTH 576 0
DWIDTH 6 0
BBX 6 10 0 -2
BITMAP
00
7C
60
60
78
60
60
7C
00
00
ENDCHAR
STARTCHAR char70
ENCODING 70
SWIDTH 576 0
DWIDTH 6 0
BBX 6 10 0 -2
BITMAP
00
7C
60
60
78
60
60
60
00
00
ENDCHAR
STARTCHAR char71
ENCODING 71
SWIDTH 576 0
DWIDTH 6 0
BBX 6 10 0 -2
BITMAP
00
38
64
60
6C
6C
6C
38
00
00
ENDCHAR
STARTCHAR char72
ENCODING 72
SWIDTH 576 0
DWIDTH 6 0
BBX 6 10 0 -2
BITMAP
00
6C
6C
6C
7C
6C
6C
6C
00
00
ENDCHAR
STARTCHAR char73
ENCODING 73
SWIDTH 576 0
DWIDTH 6 0
BBX 6 10 0 -2
BITMAP
00
78
30
30
30
30
30
78
00
00
ENDCHAR
STARTCHAR char74
ENCODING 74
SWIDTH 576 0
DWIDTH 6 0
BBX 6 10 0 -2
BITMAP
00
3C
0C
0C
0C
4C
4C
38
00
00
ENDCHAR
STARTCHAR char75
ENCODING 75
SWIDTH 576 0
DWIDTH 6 0
BBX 6 10 0 -2
BITMAP
00
6C
68
78
70
78
6C
6C
00
00
ENDCHAR
STARTCHAR char76
ENCODING 76
SWIDTH 576 0
DWIDTH 6 0
BBX 6 10 0 -2
BITMAP
00
60
60
60
60
60
60
7C
00
00
ENDCHAR
STARTCHAR char77
ENCODING 77
SWIDTH 576 0
DWIDTH 6 0
BBX 6 10 0 -2
BITMAP
00
6C
7C
7C
6C
6C
6C
6C
00
00
ENDCHAR
STARTCHAR char78
ENCODING 78
SWIDTH 576 0
DWIDTH 6 0
BBX 6 10 0 -2
BITMAP
00
44
64
74
7C
5C
4C
44
00
00
ENDCHAR
STARTCHAR char79
ENCODING 79
SWIDTH 576 0
DWIDTH 6 0
BBX 6 10 0 -2
BITMAP
00
38
6C
6C
6C
6C
6C
38
00
00
ENDCHAR
STARTCHAR char80
ENCODING 80
SWIDTH 576 0
DWIDTH 6 0
BBX 6 10 0 -2
BITMAP
00
78
6C
6C
78
60
60
60
00
00
ENDCHAR
STARTCHAR char81
ENCODING 81
SWIDTH 576 0
DWIDTH 6 0
BBX 6 10 0 -2
BITMAP
00
38
6C
6C
6C
6C
6C
38
0C
00
ENDCHAR
STARTCHAR char82
ENCODING 82
SWIDTH 576 0
DWIDTH 6 0
BBX 6 10 0 -2
BITMAP
00
78
6C
6C
78
6C
6C
6C
00
00
ENDCHAR
STARTCHAR char83
ENCODING 83
SWIDTH 576 0
DWIDTH 6 0
BBX 6 10 0 -2
BITMAP
00
38
6C
60
38
0C
6C
38
00
00
ENDCHAR
STARTCHAR char84
ENCODING 84
SWIDTH 576 0
DWIDTH 6 0
BBX 6 10 0 -2
BITMAP
00
FC
30
30
30
30
30
30
00
00
ENDCHAR
STARTCHAR char85
ENCODING 85
SWIDTH 576 0
DWIDTH 6 0
BBX 6 10 0 -2
BITMAP
00
6C
6C
6C
6C
6C
6C
38
00
00
ENDCHAR
STARTCHAR char86
ENCODING 86
SWIDTH 576 0
DWIDTH 6 0
BBX 6 10 0 -2
BITMAP
00
6C
6C
6C
6C
6C
38
38
00
00
ENDCHAR
STARTCHAR char87
ENCODING 87
SWIDTH 576 0
DWIDTH 6 0
BBX 6 10 0 -2
BITMAP
00
6C
6C
6C
6C
7C
7C
6C
00
00
ENDCHAR
STARTCHAR char88
ENCODING 88
SWIDTH 576 0
DWIDTH 6 0
BBX 6 10 0 -2
BITMAP
00
6C
6C
6C
38
6C
6C
6C
00
00
ENDCHAR
STARTCHAR char89
ENCODING 89
SWIDTH 576 0
DWIDTH 6 0
BBX 6 10 0 -2
BITMAP
00
C4
C4
68
78
30
30
30
00
00
ENDCHAR
STARTCHAR char90
ENCODING 90
SWIDTH 576 0
DWIDTH 6 0
BBX 6 10 0 -2
BITMAP
00
7C
7C
08
10
20
7C
7C
00
00
ENDCHAR
STARTCHAR char91
ENCODING 91
SWIDTH 576 0
DWIDTH 6 0
BBX 6 10 0 -2
BITMAP
00
38
30
30
30
30
30
30
38
00
ENDCHAR
STARTCHAR char92
ENCODING 92
SWIDTH 576 0
DWIDTH 6 0
BBX 6 10 0 -2
BITMAP
00
60
60
30
30
18
18
0C
0C
00
ENDCHAR
STARTCHAR char93
ENCODING 93
SWIDTH 576 0
DWIDTH 6 0
BBX 6 10 0 -2
BITMAP
00
38
18
18
18
18
18
18
38
00
ENDCHAR
STARTCHAR char94
ENCODING 94
SWIDTH 576 0
DWIDTH 6 0
BBX 6 10 0 -2
BITMAP
10
38
6C
00
00
00
00
00
00
00
ENDCHAR
STARTCHAR char95
ENCODING 95
SWIDTH 576 0
DWIDTH 6 0
BBX 6 10 0 -2
BITMAP
00
00
00
00
00
00
78
78
00
00
ENDCHAR
STARTCHAR char96
ENCODING 96
SWIDTH 576 0
DWIDTH 6 0
BBX 6 10 0 -2
BITMAP
00
30
10
08
00
00
00
00
00
00
ENDCHAR
STARTCHAR char97
ENCODING 97
SWIDTH 576 0
DWIDTH 6 0
BBX 6 10 0 -2
BITMAP
00
00
00
3C
6C
6C
6C
3C
00
00
ENDCHAR
STARTCHAR char98
ENCODING 98
SWIDTH 576 0
DWIDTH 6 0
BBX 6 10 0 -2
BITMAP
00
60
60
78
6C
6C
6C
78
00
00
ENDCHAR
STARTCHAR char99
ENCODING 99
SWIDTH 576 0
DWIDTH 6 0
BBX 6 10 0 -2
BITMAP
00
00
00
38
64
60
60
3C
00
00
ENDCHAR
STARTCHAR char100
ENCODING 100
SWIDTH 576 0
DWIDTH 6 0
BBX 6 10 0 -2
BITMAP
00
0C
0C
3C
6C
6C
6C
3C
00
00
ENDCHAR
STARTCHAR char101
ENCODING 101
SWIDTH 576 0
DWIDTH 6 0
BBX 6 10 0 -2
BITMAP
00
00
00
38
6C
7C
60
3C
00
00
ENDCHAR
STARTCHAR char102
ENCODING 102
SWIDTH 576 0
DWIDTH 6 0
BBX 6 10 0 -2
BITMAP
00
1C
30
7C
30
30
30
30
00
00
ENDCHAR
STARTCHAR char103
ENCODING 103
SWIDTH 576 0
DWIDTH 6 0
BBX 6 10 0 -2
BITMAP
00
00
00
3C
6C
6C
6C
3C
0C
38
ENDCHAR
STARTCHAR char104
ENCODING 104
SWIDTH 576 0
DWIDTH 6 0
BBX 6 10 0 -2
BITMAP
00
60
60
78
6C
6C
6C
6C
00
00
ENDCHAR
STARTCHAR char105
ENCODING 105
SWIDTH 576 0
DWIDTH 6 0
BBX 6 10 0 -2
BITMAP
30
30
00
70
30
30
30
78
00
00
ENDCHAR
STARTCHAR char106
ENCODING 106
SWIDTH 576 0
DWIDTH 6 0
BBX 6 10 0 -2
BITMAP
30
30
00
70
30
30
30
30
30
E0
ENDCHAR
STARTCHAR char107
ENCODING 107
SWIDTH 576 0
DWIDTH 6 0
BBX 6 10 0 -2
BITMAP
00
60
6C
68
70
78
6C
6C
00
00
ENDCHAR
STARTCHAR char108
ENCODING 108
SWIDTH 576 0
DWIDTH 6 0
BBX 6 10 0 -2
BITMAP
00
70
30
30
30
30
30
78
00
00
ENDCHAR
STARTCHAR char109
ENCODING 109
SWIDTH 576 0
DWIDTH 6 0
BBX 6 10 0 -2
BITMAP
00
00
00
6C
7C
7C
6C
6C
00
00
ENDCHAR
STARTCHAR char110
ENCODING 110
SWIDTH 576 0
DWIDTH 6 0
BBX 6 10 0 -2
BITMAP
00
00
00
78
6C
6C
6C
6C
00
00
ENDCHAR
STARTCHAR char111
ENCODING 111
SWIDTH 576 0
DWIDTH 6 0
BBX 6 10 0 -2
BITMAP
00
00
00
38
6C
6C
6C
38
00
00
ENDCHAR
STARTCHAR char112
ENCODING 112
SWIDTH 576 0
DWIDTH 6 0
BBX 6 10 0 -2
BITMAP
00
00
00
78
6C
6C
6C
78
60
60
ENDCHAR
STARTCHAR char113
ENCODING 113
SWIDTH 576 0
DWIDTH 6 0
BBX 6 10 0 -2
BITMAP
00
00
00
3C
6C
6C
6C
3C
0C
0C
ENDCHAR
STARTCHAR char114
ENCODING 114
SWIDTH 576 0
DWIDTH 6 0
BBX 6 10 0 -2
BITMAP
00
00
00
6C
70
60
60
60
00
00
ENDCHAR
STARTCHAR char115
ENCODING 115
SWIDTH 576 0
DWIDTH 6 0
BBX 6 10 0 -2
BITMAP
00
00
00
3C
70
38
1C
78
00
00
ENDCHAR
STARTCHAR char116
ENCODING 116
SWIDTH 576 0
DWIDTH 6 0
BBX 6 10 0 -2
BITMAP
00
30
30
7C
30
30
30
1C
00
00
ENDCHAR
STARTCHAR char117
ENCODING 117
SWIDTH 576 0
DWIDTH 6 0
BBX 6 10 0 -2
BITMAP
00
00
00
6C
6C
6C
6C
3C
00
00
ENDCHAR
STARTCHAR char118
ENCODING 118
SWIDTH 576 0
DWIDTH 6 0
BBX 6 10 0 -2
BITMAP
00
00
00
6C
6C
6C
38
38
00
00
ENDCHAR
STARTCHAR char119
ENCODING 119
SWIDTH 576 0
DWIDTH 6 0
BBX 6 10 0 -2
BITMAP
00
00
00
6C
6C
7C
7C
6C
00
00
ENDCHAR
STARTCHAR char120
ENCODING 120
SWIDTH 576 0
DWIDTH 6 0
BBX 6 10 0 -2
BITMAP
00
00
00
6C
6C
38
6C
6C
00
00
ENDCHAR
STARTCHAR char121
ENCODING 121
SWIDTH 576 0
DWIDTH 6 0
BBX 6 10 0 -2
BITMAP
00
00
00
6C
6C
6C
6C
3C
0C
38
ENDCHAR
STARTCHAR char122
ENCODING 122
SWIDTH 576 0
DWIDTH 6 0
BBX 6 10 0 -2
BITMAP
00
00
00
7C
78
10
3C
7C
00
00
ENDCHAR
STARTCHAR char123
ENCODING 123
SWIDTH 576 0
DWIDTH 6 0
BBX 6 10 0 -2
BITMAP
00
0C
18
18
70
70
18
18
0C
00
ENDCHAR
STARTCHAR char124
ENCODING 124
SWIDTH 576 0
DWIDTH 6 0
BBX 6 10 0 -2
BITMAP
00
30
30
30
30
30
30
30
30
00
ENDCHAR
STARTCHAR char125
ENCODING 125
SWIDTH 576 0
DWIDTH 6 0
BBX 6 10 0 -2
BITMAP
00
60
30
30
1C
1C
30
30
60
00
ENDCHAR
STARTCHAR char126
ENCODING 126
SWIDTH 576 0
DWIDTH 6 0
BBX 6 10 0 -2
BITMAP
00
00
00
20
74
5C
08
00
00
00
ENDCHAR
STARTCHAR char160
ENCODING 160
SWIDTH 576 0
DWIDTH 6 0
BBX 6 10 0 -2
BITMAP
00
00
00
00
00
48
78
78
00
00
ENDCHAR
STARTCHAR char161
ENCODING 161
SWIDTH 576 0
DWIDTH 6 0
BBX 6 10 0 -2
BITMAP
00
30
30
00
30
30
30
30
00
00
ENDCHAR
STARTCHAR char162
ENCODING 162
SWIDTH 576 0
DWIDTH 6 0
BBX 6 10 0 -2
BITMAP
00
00
08
3C
68
68
68
3C
08
00
ENDCHAR
STARTCHAR char163
ENCODING 163
SWIDTH 576 0
DWIDTH 6 0
BBX 6 10 0 -2
BITMAP
00
18
34
30
78
24
7C
7C
00
00
ENDCHAR
STARTCHAR char164
ENCODING 164
SWIDTH 576 0
DWIDTH 6 0
BBX 6 10 0 -2
BITMAP
00
00
00
6C
7C
28
7C
6C
00
00
ENDCHAR
STARTCHAR char165
ENCODING 165
SWIDTH 576 0
DWIDTH 6 0
BBX 6 10 0 -2
BITMAP
00
C4
C8
68
78
30
78
30
00
00
ENDCHAR
STARTCHAR char166
ENCODING 166
SWIDTH 576 0
DWIDTH 6 0
BBX 6 10 0 -2
BITMAP
00
30
30
30
00
00
30
30
30
00
ENDCHAR
STARTCHAR char167
ENCODING 167
SWIDTH 576 0
DWIDTH 6 0
BBX 6 10 0 -2
BITMAP
00
30
68
60
70
48
38
18
58
30
ENDCHAR
STARTCHAR char168
ENCODING 168
SWIDTH 576 0
DWIDTH 6 0
BBX 6 10 0 -2
BITMAP
00
28
28
00
00
00
00
00
00
00
ENDCHAR
STARTCHAR char169
ENCODING 169
SWIDTH 576 0
DWIDTH 6 0
BBX 6 10 0 -2
BITMAP
00
78
84
B4
E4
B4
84
78
00
00
ENDCHAR
STARTCHAR char170
ENCODING 170
SWIDTH 576 0
DWIDTH 6 0
BBX 6 10 0 -2
BITMAP
3C
6C
6C
3C
00
7C
7C
00
00
00
ENDCHAR
STARTCHAR char171
ENCODING 171
SWIDTH 576 0
DWIDTH 6 0
BBX 6 10 0 -2
BITMAP
00
00
00
24
48
6C
24
00
00
00
ENDCHAR
STARTCHAR char172
ENCODING 172
SWIDTH 576 0
DWIDTH 6 0
BBX 6 10 0 -2
BITMAP
00
00
00
00
7C
7C
0C
0C
00
00
ENDCHAR
STARTCHAR char173
ENCODING 173
SWIDTH 576 0
DWIDTH 6 0
BBX 6 10 0 -2
BITMAP
00
00
00
00
38
38
00
00
00
00
ENDCHAR
STARTCHAR char174
ENCODING 174
SWIDTH 576 0
DWIDTH 6 0
BBX 6 10 0 -2
BITMAP
00
78
84
F4
F4
EC
84
78
00
00
ENDCHAR
STARTCHAR char175
ENCODING 175
SWIDTH 576 0
DWIDTH 6 0
BBX 6 10 0 -2
BITMAP
00
78
78
00
00
00
00
00
00
00
ENDCHAR
STARTCHAR char176
ENCODING 176
SWIDTH 576 0
DWIDTH 6 0
BBX 6 10 0 -2
BITMAP
00
38
6C
6C
38
00
00
00
00
00
ENDCHAR
STARTCHAR char177
ENCODING 177
SWIDTH 576 0
DWIDTH 6 0
BBX 6 10 0 -2
BITMAP
00
10
10
7C
7C
10
7C
7C
00
00
ENDCHAR
STARTCHAR char178
ENCODING 178
SWIDTH 576 0
DWIDTH 6 0
BBX 6 10 0 -2
BITMAP
00
30
58
10
38
78
00
00
00
00
ENDCHAR
STARTCHAR char179
ENCODING 179
SWIDTH 576 0
DWIDTH 6 0
BBX 6 10 0 -2
BITMAP
00
70
18
30
18
70
00
00
00
00
ENDCHAR
STARTCHAR char180
ENCODING 180
SWIDTH 576 0
DWIDTH 6 0
BBX 6 10 0 -2
BITMAP
10
20
00
00
00
00
00
00
00
00
ENDCHAR
STARTCHAR char181
ENCODING 181
SWIDTH 576 0
DWIDTH 6 0
BBX 6 10 0 -2
BITMAP
00
00
00
6C
6C
6C
6C
7C
6C
60
ENDCHAR
STARTCHAR char182
ENCODING 182
SWIDTH 576 0
DWIDTH 6 0
BBX 6 10 0 -2
BITMAP
00
7C
EC
EC
6C
2C
2C
2C
00
00
ENDCHAR
STARTCHAR char183
ENCODING 183
SWIDTH 576 0
DWIDTH 6 0
BBX 6 10 0 -2
BITMAP
00
00
00
00
30
30
20
00
00
00
ENDCHAR
STARTCHAR char184
ENCODING 184
SWIDTH 576 0
DWIDTH 6 0
BBX 6 10 0 -2
BITMAP
00
00
00
00
00
00
00
00
30
60
ENDCHAR
STARTCHAR char185
ENCODING 185
SWIDTH 576 0
DWIDTH 6 0
BBX 6 10 0 -2
BITMAP
00
18
38
58
18
18
00
00
00
00
ENDCHAR
STARTCHAR char186
ENCODING 186
SWIDTH 576 0
DWIDTH 6 0
BBX 6 10 0 -2
BITMAP
38
6C
6C
38
00
7C
7C
00
00
00
ENDCHAR
STARTCHAR char187
ENCODING 187
SWIDTH 576 0
DWIDTH 6 0
BBX 6 10 0 -2
BITMAP
00
00
00
48
24
6C
48
00
00
00
ENDCHAR
STARTCHAR char188
ENCODING 188
SWIDTH 576 0
DWIDTH 6 0
BBX 6 10 0 -2
BITMAP
20
64
A8
30
20
54
94
1C
04
04
ENDCHAR
STARTCHAR char189
ENCODING 189
SWIDTH 576 0
DWIDTH 6 0
BBX 6 10 0 -2
BITMAP
20
64
A8
30
20
58
A4
08
10
3C
ENDCHAR
STARTCHAR char190
ENCODING 190
SWIDTH 576 0
DWIDTH 6 0
BBX 6 10 0 -2
BITMAP
C0
24
C8
30
E0
54
94
1C
04
04
ENDCHAR
STARTCHAR char191
ENCODING 191
SWIDTH 576 0
DWIDTH 6 0
BBX 6 10 0 -2
BITMAP
00
10
00
10
20
64
6C
38
00
00
ENDCHAR
STARTCHAR char192
ENCODING 192
SWIDTH 576 0
DWIDTH 6 0
BBX 6 10 0 -2
BITMAP
20
10
38
38
6C
7C
6C
6C
00
00
ENDCHAR
STARTCHAR char193
ENCODING 193
SWIDTH 576 0
DWIDTH 6 0
BBX 6 10 0 -2
BITMAP
08
10
38
38
6C
7C
6C
6C
00
00
ENDCHAR
STARTCHAR char194
ENCODING 194
SWIDTH 576 0
DWIDTH 6 0
BBX 6 10 0 -2
BITMAP
10
28
38
38
6C
7C
6C
6C
00
00
ENDCHAR
STARTCHAR char195
ENCODING 195
SWIDTH 576 0
DWIDTH 6 0
BBX 6 10 0 -2
BITMAP
14
28
38
38
6C
7C
6C
6C
00
00
ENDCHAR
STARTCHAR char196
ENCODING 196
SWIDTH 576 0
DWIDTH 6 0
BBX 6 10 0 -2
BITMAP
28
00
38
38
6C
7C
6C
6C
00
00
ENDCHAR
STARTCHAR char197
ENCODING 197
SWIDTH 576 0
DWIDTH 6 0
BBX 6 10 0 -2
BITMAP
38
28
38
38
6C
7C
6C
6C
00
00
ENDCHAR
STARTCHAR char198
ENCODING 198
SWIDTH 576 0
DWIDTH 6 0
BBX 6 10 0 -2
BITMAP
00
1C
38
38
5C
78
98
9C
00
00
ENDCHAR
STARTCHAR char199
ENCODING 199
SWIDTH 576 0
DWIDTH 6 0
BBX 6 10 0 -2
BITMAP
00
38
64
60
60
60
64
38
30
60
ENDCHAR
STARTCHAR char200
ENCODING 200
SWIDTH 576 0
DWIDTH 6 0
BBX 6 10 0 -2
BITMAP
20
10
7C
60
78
60
60
7C
00
00
ENDCHAR
STARTCHAR char201
ENCODING 201
SWIDTH 576 0
DWIDTH 6 0
BBX 6 10 0 -2
BITMAP
20
10
7C
60
78
60
60
7C
00
00
ENDCHAR
STARTCHAR char202
ENCODING 202
SWIDTH 576 0
DWIDTH 6 0
BBX 6 10 0 -2
BITMAP
10
28
7C
60
78
60
60
7C
00
00
ENDCHAR
STARTCHAR char203
ENCODING 203
SWIDTH 576 0
DWIDTH 6 0
BBX 6 10 0 -2
BITMAP
28
00
7C
60
78
60
60
7C
00
00
ENDCHAR
STARTCHAR char204
ENCODING 204
SWIDTH 576 0
DWIDTH 6 0
BBX 6 10 0 -2
BITMAP
20
10
78
30
30
30
30
78
00
00
ENDCHAR
STARTCHAR char205
ENCODING 205
SWIDTH 576 0
DWIDTH 6 0
BBX 6 10 0 -2
BITMAP
10
20
78
30
30
30
30
78
00
00
ENDCHAR
STARTCHAR char206
ENCODING 206
SWIDTH 576 0
DWIDTH 6 0
BBX 6 10 0 -2
BITMAP
10
28
78
30
30
30
30
78
00
00
ENDCHAR
STARTCHAR char207
ENCODING 207
SWIDTH 576 0
DWIDTH 6 0
BBX 6 10 0 -2
BITMAP
48
00
78
30
30
30
30
78
00
00
ENDCHAR
STARTCHAR char208
ENCODING 208
SWIDTH 576 0
DWIDTH 6 0
BBX 6 10 0 -2
BITMAP
00
F8
CC
CC
EC
CC
CC
F8
00
00
ENDCHAR
STARTCHAR char209
ENCODING 209
SWIDTH 576 0
DWIDTH 6 0
BBX 6 10 0 -2
BITMAP
14
28
44
64
74
5C
4C
44
00
00
ENDCHAR
STARTCHAR char210
ENCODING 210
SWIDTH 576 0
DWIDTH 6 0
BBX 6 10 0 -2
BITMAP
20
10
38
6C
6C
6C
6C
38
00
00
ENDCHAR
STARTCHAR char211
ENCODING 211
SWIDTH 576 0
DWIDTH 6 0
BBX 6 10 0 -2
BITMAP
08
10
38
6C
6C
6C
6C
38
00
00
ENDCHAR
STARTCHAR char212
ENCODING 212
SWIDTH 576 0
DWIDTH 6 0
BBX 6 10 0 -2
BITMAP
10
28
38
6C
6C
6C
6C
38
00
00
ENDCHAR
STARTCHAR char213
ENCODING 213
SWIDTH 576 0
DWIDTH 6 0
BBX 6 10 0 -2
BITMAP
14
28
38
6C
6C
6C
6C
38
00
00
ENDCHAR
STARTCHAR char214
ENCODING 214
SWIDTH 576 0
DWIDTH 6 0
BBX 6 10 0 -2
BITMAP
28
00
38
6C
6C
6C
6C
38
00
00
ENDCHAR
STARTCHAR char215
ENCODING 215
SWIDTH 576 0
DWIDTH 6 0
BBX 6 10 0 -2
BITMAP
00
00
00
6C
6C
10
6C
6C
00
00
ENDCHAR
STARTCHAR char216
ENCODING 216
SWIDTH 576 0
DWIDTH 6 0
BBX 6 10 0 -2
BITMAP
04
38
6C
6C
7C
6C
6C
B8
00
00
ENDCHAR
STARTCHAR char217
ENCODING 217
SWIDTH 576 0
DWIDTH 6 0
BBX 6 10 0 -2
BITMAP
20
10
6C
6C
6C
6C
6C
38
00
00
ENDCHAR
STARTCHAR char218
ENCODING 218
SWIDTH 576 0
DWIDTH 6 0
BBX 6 10 0 -2
BITMAP
08
10
6C
6C
6C
6C
6C
38
00
00
ENDCHAR
STARTCHAR char219
ENCODING 219
SWIDTH 576 0
DWIDTH 6 0
BBX 6 10 0 -2
BITMAP
10
28
6C
6C
6C
6C
6C
38
00
00
ENDCHAR
STARTCHAR char220
ENCODING 220
SWIDTH 576 0
DWIDTH 6 0
BBX 6 10 0 -2
BITMAP
28
00
6C
6C
6C
6C
6C
38
00
00
ENDCHAR
STARTCHAR char221
ENCODING 221
SWIDTH 576 0
DWIDTH 6 0
BBX 6 10 0 -2
BITMAP
08
10
C4
68
78
30
30
30
00
00
ENDCHAR
STARTCHAR char222
ENCODING 222
SWIDTH 576 0
DWIDTH 6 0
BBX 6 10 0 -2
BITMAP
00
60
60
78
6C
6C
78
60
60
00
ENDCHAR
STARTCHAR char223
ENCODING 223
SWIDTH 576 0
DWIDTH 6 0
BBX 6 10 0 -2
BITMAP
00
38
6C
78
6C
6C
6C
68
00
00
ENDCHAR
STARTCHAR char224
ENCODING 224
SWIDTH 576 0
DWIDTH 6 0
BBX 6 10 0 -2
BITMAP
20
10
00
3C
6C
6C
6C
3C
00
00
ENDCHAR
STARTCHAR char225
ENCODING 225
SWIDTH 576 0
DWIDTH 6 0
BBX 6 10 0 -2
BITMAP
08
10
00
3C
6C
6C
6C
3C
00
00
ENDCHAR
STARTCHAR char226
ENCODING 226
SWIDTH 576 0
DWIDTH 6 0
BBX 6 10 0 -2
BITMAP
18
34
00
3C
6C
6C
6C
3C
00
00
ENDCHAR
STARTCHAR char227
ENCODING 227
SWIDTH 576 0
DWIDTH 6 0
BBX 6 10 0 -2
BITMAP
14
28
00
3C
6C
6C
6C
3C
00
00
ENDCHAR
STARTCHAR char228
ENCODING 228
SWIDTH 576 0
DWIDTH 6 0
BBX 6 10 0 -2
BITMAP
28
28
00
3C
6C
6C
6C
3C
00
00
ENDCHAR
STARTCHAR char229
ENCODING 229
SWIDTH 576 0
DWIDTH 6 0
BBX 6 10 0 -2
BITMAP
10
28
10
3C
6C
6C
6C
3C
00
00
ENDCHAR
STARTCHAR char230
ENCODING 230
SWIDTH 576 0
DWIDTH 6 0
BBX 6 10 0 -2
BITMAP
00
00
00
6C
74
38
5C
6C
00
00
ENDCHAR
STARTCHAR char231
ENCODING 231
SWIDTH 576 0
DWIDTH 6 0
BBX 6 10 0 -2
BITMAP
00
00
00
38
64
60
60
3C
18
30
ENDCHAR
STARTCHAR char232
ENCODING 232
SWIDTH 576 0
DWIDTH 6 0
BBX 6 10 0 -2
BITMAP
20
10
00
38
6C
7C
60
3C
00
00
ENDCHAR
STARTCHAR char233
ENCODING 233
SWIDTH 576 0
DWIDTH 6 0
BBX 6 10 0 -2
BITMAP
08
10
00
38
6C
7C
60
3C
00
00
ENDCHAR
STARTCHAR char234
ENCODING 234
SWIDTH 576 0
DWIDTH 6 0
BBX 6 10 0 -2
BITMAP
18
34
00
38
6C
7C
60
3C
00
00
ENDCHAR
STARTCHAR char235
ENCODING 235
SWIDTH 576 0
DWIDTH 6 0
BBX 6 10 0 -2
BITMAP
28
28
00
38
6C
7C
60
3C
00
00
ENDCHAR
STARTCHAR char236
ENCODING 236
SWIDTH 576 0
DWIDTH 6 0
BBX 6 10 0 -2
BITMAP
20
10
00
70
30
30
30
78
00
00
ENDCHAR
STARTCHAR char237
ENCODING 237
SWIDTH 576 0
DWIDTH 6 0
BBX 6 10 0 -2
BITMAP
10
20
00
70
30
30
30
78
00
00
ENDCHAR
STARTCHAR char238
ENCODING 238
SWIDTH 576 0
DWIDTH 6 0
BBX 6 10 0 -2
BITMAP
30
68
00
70
30
30
30
78
00
00
ENDCHAR
STARTCHAR char239
ENCODING 239
SWIDTH 576 0
DWIDTH 6 0
BBX 6 10 0 -2
BITMAP
28
28
00
70
30
30
30
78
00
00
ENDCHAR
STARTCHAR char240
ENCODING 240
SWIDTH 576 0
DWIDTH 6 0
BBX 6 10 0 -2
BITMAP
68
30
58
38
6C
6C
6C
38
00
00
ENDCHAR
STARTCHAR char241
ENCODING 241
SWIDTH 576 0
DWIDTH 6 0
BBX 6 10 0 -2
BITMAP
14
28
00
78
6C
6C
6C
6C
00
00
ENDCHAR
STARTCHAR char242
ENCODING 242
SWIDTH 576 0
DWIDTH 6 0
BBX 6 10 0 -2
BITMAP
20
10
00
38
6C
6C
6C
38
00
00
ENDCHAR
STARTCHAR char243
ENCODING 243
SWIDTH 576 0
DWIDTH 6 0
BBX 6 10 0 -2
BITMAP
08
10
00
38
6C
6C
6C
38
00
00
ENDCHAR
STARTCHAR char244
ENCODING 244
SWIDTH 576 0
DWIDTH 6 0
BBX 6 10 0 -2
BITMAP
18
34
00
38
6C
6C
6C
38
00
00
ENDCHAR
STARTCHAR char245
ENCODING 245
SWIDTH 576 0
DWIDTH 6 0
BBX 6 10 0 -2
BITMAP
14
28
00
38
6C
6C
6C
38
00
00
ENDCHAR
STARTCHAR char246
ENCODING 246
SWIDTH 576 0
DWIDTH 6 0
BBX 6 10 0 -2
BITMAP
28
28
00
38
6C
6C
6C
38
00
00
ENDCHAR
STARTCHAR char247
ENCODING 247
SWIDTH 576 0
DWIDTH 6 0
BBX 6 10 0 -2
BITMAP
00
00
10
00
7C
7C
00
10
00
00
ENDCHAR
STARTCHAR char248
ENCODING 248
SWIDTH 576 0
DWIDTH 6 0
BBX 6 10 0 -2
BITMAP
00
00
04
38
6C
7C
6C
38
40
00
ENDCHAR
STARTCHAR char249
ENCODING 249
SWIDTH 576 0
DWIDTH 6 0
BBX 6 10 0 -2
BITMAP
20
10
00
6C
6C
6C
6C
3C
00
00
ENDCHAR
STARTCHAR char250
ENCODING 250
SWIDTH 576 0
DWIDTH 6 0
BBX 6 10 0 -2
BITMAP
08
10
00
6C
6C
6C
6C
3C
00
00
ENDCHAR
STARTCHAR char251
ENCODING 251
SWIDTH 576 0
DWIDTH 6 0
BBX 6 10 0 -2
BITMAP
18
34
00
6C
6C
6C
6C
3C
00
00
ENDCHAR
STARTCHAR char252
ENCODING 252
SWIDTH 576 0
DWIDTH 6 0
BBX 6 10 0 -2
BITMAP
28
28
00
6C
6C
6C
6C
3C
00
00
ENDCHAR
STARTCHAR char253
ENCODING 253
SWIDTH 576 0
DWIDTH 6 0
BBX 6 10 0 -2
BITMAP
08
10
00
6C
6C
6C
6C
3C
0C
38
ENDCHAR
STARTCHAR char254
ENCODING 254
SWIDTH 576 0
DWIDTH 6 0
BBX 6 10 0 -2
BITMAP
00
60
78
6C
6C
6C
6C
78
60
00
ENDCHAR
STARTCHAR char255
ENCODING 255
SWIDTH 576 0
DWIDTH 6 0
BBX 6 10 0 -2
BITMAP
28
28
00
6C
6C
6C
6C
3C
0C
38
ENDCHAR
ENDFONT
